HIERARCHY
ROOT Hips
{
	OFFSET 0.000000 0.000000 0.000000 
	CHANNELS 6 Xposition Yposition Zposition Zrotation Yrotation Xrotation
	JOINT LeftUpLeg
	{
		OFFSET 1.363060 -1.794630 0.839290 
		CHANNELS 3 Zrotation Yrotation Xrotation
		JOINT LeftLeg
		{
			OFFSET 2.448110 -6.726130 0.000000 
			CHANNELS 3 Zrotation Yrotation Xrotation
			JOINT LeftFoot
			{
				OFFSET 2.562200 -7.039590 0.000000 
				CHANNELS 3 Zrotation Yrotation Xrotation
				JOINT LeftToeBase
				{
					OFFSET 0.157640 -0.433110 2.322550 
					CHANNELS 3 Zrotation Yrotation Xrotation
					End Site
					{
						OFFSET 0.000000 0.000000 0.000000 
					}
				}
			}
		}
	}
	JOINT RightUpLeg
	{
		OFFSET -1.305520 -1.794630 0.839290 
		CHANNELS 3 Zrotation Yrotation Xrotation
		JOINT RightLeg
		{
			OFFSET -2.542530 -6.985550 0.000000 
			CHANNELS 3 Zrotation Yrotation Xrotation
			JOINT RightFoot
			{
				OFFSET -2.568260 -7.056230 0.000000 
				CHANNELS 3 Zrotation Yrotation Xrotation
				JOINT RightToeBase
				{
					OFFSET -0.164730 -0.452590 2.363150 
					CHANNELS 3 Zrotation Yrotation Xrotation
					End Site
					{
						OFFSET 0.000000 0.000000 0.000000 
					}
				}
			}
		}
	}
	JOINT Spine
	{
		OFFSET 0.028270 2.035590 -0.193380 
		CHANNELS 3 Zrotation Yrotation Xrotation
		JOINT Spine1
		{
			OFFSET 0.056720 2.048850 -0.042750 
			CHANNELS 3 Zrotation Yrotation Xrotation
			JOINT Neck1
			{
				OFFSET -0.054170 1.746240 0.172020 
				CHANNELS 3 Zrotation Yrotation Xrotation
				JOINT Head
				{
					OFFSET 0.104070 1.761360 -0.123970 
					CHANNELS 3 Zrotation Yrotation Xrotation
					End Site
					{
						OFFSET 0.000000 0.000000 0.000000 
					}
				}
			}
			JOINT LeftArm
			{
				OFFSET 3.362410 1.200890 -0.311210 
				CHANNELS 3 Zrotation Yrotation Xrotation
				JOINT LeftForeArm
				{
					OFFSET 4.983000 -0.000000 -0.000000 
					CHANNELS 3 Zrotation Yrotation Xrotation
					JOINT LeftHand
					{
						OFFSET 3.483560 -0.000000 -0.000000 
						CHANNELS 3 Zrotation Yrotation Xrotation
						JOINT LeftHandIndex1
						{
							OFFSET 0.715260 -0.000000 -0.000000 
							CHANNELS 3 Zrotation Yrotation Xrotation
							End Site
							{
								OFFSET 0.000000 0.000000 0.000000 
							}
						}
					}
				}
			}
			JOINT RightArm
			{
				OFFSET -3.136600 1.374050 -0.404650 
				CHANNELS 3 Zrotation Yrotation Xrotation
				JOINT RightForeArm
				{
					OFFSET -5.241900 -0.000000 -0.000000 
					CHANNELS 3 Zrotation Yrotation Xrotation
					JOINT RightHand
					{
						OFFSET -3.444170 -0.000000 -0.000000 
						CHANNELS 3 Zrotation Yrotation Xrotation
						JOINT RightHandIndex1
						{
							OFFSET -0.622530 -0.000000 -0.000000 
							CHANNELS 3 Zrotation Yrotation Xrotation
							End Site
							{
								OFFSET 0.000000 0.000000 0.000000 
							}
						}
					}
				}
			}
		}
	}
}
MOTION
Frames: 12
Frame Time: 0.041667
0.721831 15.934391 -3.603319 2.923977 9.234300 -12.938969 -15.668871 8.897374 -52.147144 15.103708 19.981333 77.049229 1.569166 -5.000219 26.052868 0.218100 -3.006400 -8.296700 5.910075 -4.932875 -80.851629 -35.643530 -14.034344 142.132508 -0.003424 1.046466 -3.835727 -0.032600 -1.165800 3.205000 0.896803 -3.258686 7.785004 1.540050 -1.351178 2.580558 3.783993 -0.658756 28.806960 3.249600 -1.331800 14.402300 -76.403449 -11.591809 40.772874 43.526918 -50.567429 -23.966337 0.238946 -1.164533 5.976261 -7.125000 0.000000 0.000000 52.106354 -24.040796 70.520676 -55.377127 52.073170 -32.068427 0.990239 -0.313140 15.433623 7.125000 0.000000 0.000000 
0.708855 15.926847 -3.613680 3.256679 9.526979 -13.182279 -15.613867 8.727307 -52.445182 15.707537 20.114770 78.864236 1.565154 -5.359740 26.084666 0.186600 -2.782100 -7.672800 5.505759 -5.431270 -80.687641 -35.672448 -14.014624 142.217723 -0.003357 1.105192 -3.742199 -0.038900 -1.272800 3.499700 0.841996 -3.207331 7.756766 1.661147 -1.341795 2.474267 4.090536 -0.772372 28.345060 3.381100 -1.346300 14.172800 -76.307450 -11.508295 40.815168 43.795293 -50.701178 -24.197061 0.248473 -1.162454 6.297824 -7.125000 0.000000 0.000000 51.819153 -24.075069 70.809695 -55.575695 52.138677 -32.244590 0.977569 -0.314152 15.007169 7.125000 0.000000 0.000000 
0.697790 15.922019 -3.625147 3.229152 9.652072 -13.388707 -15.149062 8.650573 -52.860118 16.308905 20.247806 80.705687 1.564123 -6.280757 25.960826 0.260600 -3.284000 -9.070500 5.611200 -5.477358 -80.556310 -35.670506 -14.006175 142.217334 0.015646 0.841092 -3.753094 -0.038600 -1.267900 3.486300 0.834006 -3.133557 7.775872 1.569006 -1.299770 2.474124 4.328343 -0.863563 28.029853 3.476800 -1.353700 14.072200 -76.173091 -11.576922 40.829810 44.059933 -50.828412 -24.423087 0.255915 -1.160187 6.471483 -7.125000 0.000000 0.000000 51.641685 -23.976726 70.943407 -55.678568 52.177653 -32.341037 0.954964 -0.321194 14.738704 7.125000 0.000000 0.000000 
0.685417 15.915883 -3.637620 3.074862 9.677840 -13.607339 -14.480586 8.674583 -53.296378 16.936091 20.372412 82.599467 1.538233 -7.256238 25.621097 0.368400 -3.899000 -10.792600 5.887141 -5.249015 -80.413410 -35.656720 -13.998453 142.194385 0.033933 0.552303 -3.829089 -0.041600 -1.316100 3.619000 0.852707 -3.042169 7.834639 1.424624 -1.243378 2.554500 4.413562 -0.924480 27.845693 3.512300 -1.367800 14.058900 -76.042099 -11.746646 40.792949 44.228262 -50.900225 -24.554750 0.245607 -1.155955 6.781145 -7.125000 0.000000 0.000000 51.508287 -23.803968 70.987007 -55.709384 52.196694 -32.374702 0.935644 -0.337376 14.691789 7.125000 0.000000 0.000000 
0.677068 15.918096 -3.642247 3.327940 9.640259 -13.793338 -14.243860 8.882044 -53.543196 17.551633 20.451134 84.397928 1.489811 -7.537306 25.235595 0.357700 -3.842300 -10.633400 5.594051 -5.158295 -80.114753 -35.653783 -13.998315 142.180953 0.016046 0.766709 -3.857605 -0.045900 -1.383400 3.804400 0.783271 -2.880164 7.889909 1.365642 -1.166560 2.682917 4.413931 -1.014288 27.636457 3.501100 -1.399900 13.999300 -75.926708 -11.747654 40.822868 44.469562 -51.008704 -24.739543 0.235668 -1.153663 7.140588 -7.125000 0.000000 0.000000 51.403856 -23.756003 70.986042 -55.850651 52.248663 -32.506055 0.916070 -0.345516 14.406217 7.125000 0.000000 0.000000 
0.672240 15.930167 -3.637017 4.090908 9.637224 -13.960971 -14.607157 9.212543 -53.537748 18.126646 20.473841 86.109931 1.415545 -7.714474 24.564601 0.339600 -3.744700 -10.359600 4.647449 -5.429132 -79.681911 -35.674009 -14.003991 142.200253 -0.021277 1.313812 -3.782193 -0.032500 -1.163900 3.199800 0.572334 -2.696779 7.973520 1.396936 -1.097395 2.900138 4.434479 -1.122474 27.476667 3.485000 -1.430600 13.948800 -75.766871 -11.604727 40.806174 44.855464 -51.193002 -25.053783 0.244369 -1.157041 7.540763 -7.125000 0.000000 0.000000 51.360645 -23.720515 70.993808 -56.025606 52.309671 -32.669278 0.886695 -0.343189 13.837800 7.125000 0.000000 0.000000 
0.655743 15.988509 -3.660856 4.490630 9.673692 -14.167367 -14.650398 9.464628 -53.473408 18.596194 20.485769 87.526580 1.348750 -8.192716 23.824772 0.420700 -4.163000 -11.535800 4.383675 -5.544342 -78.927120 -35.587464 -14.105224 141.798188 -0.039105 1.550109 -3.755377 -0.031100 -1.139100 3.131700 0.433580 -2.558904 8.078953 1.359669 -1.038685 3.092277 4.412483 -1.218335 27.302995 3.438100 -1.450300 13.906300 -75.576356 -11.621256 40.711788 45.063272 -51.289823 -25.222800 0.250348 -1.159863 8.018556 -7.125000 0.000000 0.000000 51.409955 -23.574787 70.930652 -56.019825 52.316676 -32.672794 0.857999 -0.356536 13.780431 7.125000 0.000000 0.000000 
0.644779 15.985893 -3.671116 4.586022 9.810473 -14.325863 -14.307449 9.456162 -53.820988 19.204494 20.526578 89.304728 1.290013 -8.523480 23.283714 0.436000 -4.237100 -11.744600 4.303513 -5.642136 -78.740957 -35.581905 -14.103718 141.782305 -0.036799 1.647098 -3.542813 -0.046000 -1.384500 3.807400 0.390593 -2.508906 8.142017 1.307084 -1.013619 3.216200 4.453424 -1.260027 27.118442 3.448400 -1.456800 13.873000 -75.466517 -11.785455 40.561208 45.062954 -51.283940 -25.227774 0.239286 -1.153669 8.399205 -7.125000 0.000000 0.000000 51.313157 -23.340955 70.917756 -55.936353 52.302396 -32.608896 0.834620 -0.383320 14.095936 7.125000 0.000000 0.000000 
0.633915 15.978651 -3.680773 4.753778 10.048963 -14.503420 -14.057808 9.377873 -54.093290 19.824027 20.542057 91.118801 1.235711 -8.722622 22.844200 0.391300 -4.016500 -11.123100 4.094662 -5.889800 -78.634522 -35.585523 -14.103211 141.783204 -0.030833 1.758615 -3.220379 -0.055300 -1.517400 4.173700 0.348819 -2.492475 8.150187 1.323345 -1.008568 3.193452 4.478649 -1.276481 26.998475 3.471000 -1.466800 13.875800 -75.438237 -11.855308 40.413763 45.149467 -51.317014 -25.306132 0.224723 -1.144385 8.672776 -7.125000 0.000000 0.000000 51.169767 -23.204450 70.884918 -55.890054 52.298002 -32.580403 0.809678 -0.408210 14.409844 7.125000 0.000000 0.000000 
0.620235 15.972615 -3.690228 4.831905 10.253599 -14.678757 -13.708153 9.364193 -54.392643 20.463951 20.542377 92.995358 1.182830 -8.988587 22.412236 0.329800 -3.690900 -10.208700 4.056533 -6.052096 -78.503824 -35.580135 -14.101478 141.770232 -0.033596 1.910849 -3.036012 -0.055600 -1.521100 4.184000 0.328561 -2.485075 8.137413 1.349870 -1.006638 3.133951 4.434600 -1.244844 26.867716 3.459800 -1.457700 13.869400 -75.414227 -11.810200 40.238659 45.299617 -51.382931 -25.429490 0.220072 -1.141943 8.860442 -7.125000 0.000000 0.000000 50.979565 -23.068384 70.976794 -55.849752 52.294297 -32.555961 0.783854 -0.427301 14.775112 7.125000 0.000000 0.000000 
0.604443 15.970704 -3.701394 4.961458 10.432122 -14.838600 -13.444853 9.436100 -54.708474 21.100827 20.520564 94.874132 1.124992 -9.276805 21.905691 0.309600 -3.577300 -9.890500 3.970801 -6.200517 -78.351976 -35.573117 -14.102566 141.749654 -0.047241 2.166504 -2.951649 -0.048300 -1.418600 3.901400 0.277393 -2.454708 8.139855 1.364201 -0.996652 3.107711 4.518004 -1.296389 26.667857 3.500800 -1.473900 13.831000 -75.333630 -11.790777 40.130414 45.302510 -51.382617 -25.424424 0.216540 -1.142687 8.982422 -7.125000 0.000000 0.000000 50.895804 -22.953791 71.048368 -55.840726 52.296432 -32.558883 0.754268 -0.430313 15.218953 7.125000 0.000000 0.000000 
0.589555 15.963663 -3.710447 4.949702 10.544971 -15.045032 -13.075041 9.699669 -55.056243 21.752963 20.482136 96.796622 1.062731 -9.665526 21.304548 0.342600 -3.761000 -10.405300 4.068385 -6.219982 -78.199780 -35.566394 -14.091649 141.754800 -0.058516 2.324979 -2.973402 -0.035600 -1.217600 3.347700 0.235495 -2.410859 8.157552 1.292866 -0.971083 3.088034 4.588156 -1.382061 26.501232 3.524200 -1.500900 13.813600 -75.215563 -11.784079 39.987005 45.354876 -51.406302 -25.467486 0.217800 -1.144016 9.077970 -7.125000 0.000000 0.000000 50.851766 -22.830219 71.121177 -55.939695 52.332940 -32.652360 0.728388 -0.435109 15.521739 7.125000 0.000000 0.000000 
